<svg xmlns="http://www.w3.org/2000/svg" xmlns:xlink="http://www.w3.org/1999/xlink" version="1.1" width="256" height="256" viewBox="0 0 256 256" xml:space="preserve">

<defs>
</defs>
<g style="stroke: none; stroke-width: 0; stroke-dasharray: none; stroke-linecap: butt; stroke-linejoin: miter; stroke-miterlimit: 10; fill: none; fill-rule: nonzero; opacity: 1;" transform="translate(1.4065934065934016 1.4065934065934016) scale(2.81 2.81)" >
	<circle cx="45" cy="45" r="45" style="stroke: none; stroke-width: 1; stroke-dasharray: none; stroke-linecap: butt; stroke-linejoin: miter; stroke-miterlimit: 10; fill: rgb(255,202,40); fill-rule: nonzero; opacity: 1;" transform="  matrix(1 0 0 1 0 0) "/>
	<path d="M 82.583 20.258 C 84.779 25.758 86 31.752 86 38.035 C 86 64.525 64.525 86 38.035 86 c -6.283 0 -12.277 -1.221 -17.777 -3.417 C 27.358 87.266 35.858 90 45 90 c 24.853 0 45 -20.147 45 -45 C 90 35.858 87.266 27.358 82.583 20.258 z" style="stroke: none; stroke-width: 1; stroke-dasharray: none; stroke-linecap: butt; stroke-linejoin: miter; stroke-miterlimit: 10; fill: rgb(231,182,34); fill-rule: nonzero; opacity: 1;" transform=" matrix(1 0 0 1 0 0) " stroke-linecap="round" />
	<path d="M 45 69.345 c -7.954 0 -15.337 -3.969 -19.751 -10.617 c -0.611 -0.92 -0.36 -2.162 0.56 -2.772 c 0.92 -0.613 2.162 -0.36 2.772 0.56 c 3.671 5.529 9.809 8.83 16.419 8.83 c 6.61 0 12.748 -3.301 16.419 -8.83 c 0.61 -0.921 1.85 -1.173 2.772 -0.56 c 0.92 0.61 1.171 1.853 0.56 2.772 C 60.337 65.376 52.953 69.345 45 69.345 z" style="stroke: none; stroke-width: 1; stroke-dasharray: none; stroke-linecap: butt; stroke-linejoin: miter; stroke-miterlimit: 10; fill: rgb(96,67,35); fill-rule: nonzero; opacity: 1;" transform=" matrix(1 0 0 1 0 0) " stroke-linecap="round" />
	<path d="M 18.789 34.942 c -1.408 -2.13 -1.174 -5.025 0.701 -6.901 v 0 c 2.143 -2.143 5.616 -2.143 7.759 0 l 1.188 1.188 c 0.311 0.311 0.815 0.311 1.126 0 l 1.188 -1.188 c 2.143 -2.143 5.616 -2.143 7.759 0 v 0 c 1.875 1.875 2.109 4.769 0.703 6.898 l -1.837 1.995 l -0.617 0.617 l -7.23 7.23 c -0.292 0.292 -0.765 0.292 -1.057 0 l -7.23 -7.23 l 0 0 l -0.618 -0.618 L 18.789 34.942 z" style="stroke: none; stroke-width: 1; stroke-dasharray: none; stroke-linecap: butt; stroke-linejoin: miter; stroke-miterlimit: 10; fill: rgb(239,41,41); fill-rule: nonzero; opacity: 1;" transform=" matrix(1 0 0 1 0 0) " stroke-linecap="round" />
	<path d="M 50.789 34.942 c -1.408 -2.13 -1.174 -5.025 0.701 -6.901 v 0 c 2.143 -2.143 5.616 -2.143 7.759 0 l 1.188 1.188 c 0.311 0.311 0.815 0.311 1.126 0 l 1.188 -1.188 c 2.143 -2.143 5.616 -2.143 7.759 0 v 0 c 1.875 1.875 2.109 4.769 0.703 6.898 l -1.837 1.995 l -0.617 0.617 l -7.23 7.23 c -0.292 0.292 -0.765 0.292 -1.057 0 l -7.23 -7.23 l 0 0 l -0.618 -0.618 L 50.789 34.942 z" style="stroke: none; stroke-width: 1; stroke-dasharray: none; stroke-linecap: butt; stroke-linejoin: miter; stroke-miterlimit: 10; fill: rgb(239,41,41); fill-rule: nonzero; opacity: 1;" transform=" matrix(1 0 0 1 0 0) " stroke-linecap="round" />
</g>
</svg>